Coordinates
version=1
nRows=5
nColumns=40
inDegrees=yes

Units are S.I. units (second, meters, Newtons, ...)
If the header above contains a line with 'inDegrees', this indicates whether rotational values are in degrees (yes) or radians (no).

endheader
time	pelvis_tilt	pelvis_list	pelvis_rotation	pelvis_tx	pelvis_ty	pelvis_tz	hip_flexion_r	hip_adduction_r	hip_rotation_r	knee_angle_r	knee_angle_r_beta	ankle_angle_r	subtalar_angle_r	mtp_angle_r	hip_flexion_l	hip_adduction_l	hip_rotation_l	knee_angle_l	knee_angle_l_beta	ankle_angle_l	subtalar_angle_l	mtp_angle_l	lumbar_extension	lumbar_bending	lumbar_rotation	arm_flex_r	arm_add_r	arm_rot_r	elbow_flex_r	pro_sup_r	wrist_flex_r	wrist_dev_r	arm_flex_l	arm_add_l	arm_rot_l	elbow_flex_l	pro_sup_l	wrist_flex_l	wrist_dev_l
      2.46000000	      1.03687658	      4.51762717	      0.36076072	     -0.38987908	      0.87597598	     -0.79692003	     31.08076754	     -3.87475787	    -12.14186658	     56.18136611	      0.98054982	     14.86606112	      0.00000000	      0.00000000	     45.69303707	     -2.79549368	     -7.40603279	     17.40570572	      0.30378687	    -24.25810368	      0.00000000	      0.00000000	    -18.94922675	    -26.81607733	    -20.09609143	     68.66549811	    -11.05968083	     17.87776197	     57.24441041	     87.62881688	      0.00000000	      0.00000000	     89.94600625	      8.04577130	     54.80531229	     22.40528665	     63.15886988	      0.00000000	      0.00000000
      2.46500000	      1.00430846	      4.47344432	      0.32291831	     -0.39028213	      0.87515891	     -0.79665373	     31.24264904	     -3.77867711	    -12.06067384	     56.35580231	      0.98359430	     14.96898931	      0.00000000	      0.00000000	     45.77099161	     -2.92309913	     -7.43772382	     17.51453109	      0.30568623	    -24.15185338	      0.00000000	      0.00000000	    -18.96912024	    -26.80556819	    -20.07239307	     68.71220196	    -11.06943589	     17.86223626	     57.26205168	     87.63270541	      0.00000000	      0.00000000	     89.94590102	      8.04980244	     54.48916458	     22.50513806	     63.25103108	      0.00000000	      0.00000000
      2.47000000	      0.98478001	      4.41503823	      0.36473089	     -0.39074732	      0.87436481	     -0.79653777	     31.38468081	     -3.70004789	    -12.01334087	     56.54633809	      0.98691978	     15.02918370	      0.00000000	      0.00000000	     45.84967751	     -2.99819469	     -7.47107241	     17.59980087	      0.30717447	    -24.20126512	      0.00000000	      0.00000000	    -19.05534748	    -26.74847862	    -20.14970177	     68.78685175	    -11.04926562	     17.81765663	     57.23600478	     87.55554946	      0.00000000	      0.00000000	     89.94589589	      8.02771669	     54.14419635	     22.67089534	     63.28815511	      0.00000000	      0.00000000
      2.47500000	      0.93171199	      4.45906950	      0.49753333	     -0.39126550	      0.87360844	     -0.79663845	     31.54651905	     -3.82638301	    -12.12698279	     56.71125877	      0.98979819	     15.13893185	      0.00000000	      0.00000000	     45.95136212	     -2.90433923	     -7.46825521	     17.65747867	      0.30818114	    -24.29516725	      0.00000000	      0.00000000	    -19.13033615	    -26.79547992	    -20.29228706	     68.78726465	    -11.08624151	     17.80790390	     57.26246929	     87.60104305	      0.00000000	      0.00000000	     89.94617885	      8.04540601	     54.19235737	     22.66925189	     63.11460623	      0.00000000	      0.00000000
      2.48000000	      0.95875931	      4.41735008	      0.55539910	     -0.39172233	      0.87298666	     -0.79656456	     31.61821994	     -3.78280034	    -12.13911164	     56.86298367	      0.99244629	     15.28016881	      0.00000000	      0.00000000	     45.95268985	     -2.93187715	     -7.39448216	     17.70201406	      0.30895843	    -24.33867383	      0.00000000	      0.00000000	    -19.30570210	    -26.72653087	    -20.44794994	     68.89867000	    -11.04222425	     17.85683506	     57.26249611	     87.66491336	      0.00000000	      0.00000000	     89.94607203	      7.96762498	     53.55083743	     22.95797333	     63.29546437	      0.00000000	      0.00000000
